<svg fill="none" height="35" viewBox="0 0 220 35" width="220" xmlns="http://www.w3.org/2000/svg" xmlns:xlink="http://www.w3.org/1999/xlink"><clipPath id="a"><path d="m0 0h123v35h-123z"/></clipPath><g clip-path="url(#a)"><path d="m17.5001 0c9.6649 0 17.4999 7.83502 17.4999 17.5 0 9.665-7.835 17.5-17.4999 17.5-9.66508 0-17.5001-7.835-17.5001-17.5 0-9.66498 7.83502-17.5 17.5001-17.5z" fill="#f73b95"/><path d="m17.5417 3.41699c7.824 0 14.1666 6.34263 14.1666 14.16671 0 7.824-6.3426 14.1666-14.1666 14.1666-7.82403 0-14.1667-6.3426-14.1667-14.1666 0-7.82408 6.34267-14.16671 14.1667-14.16671z" fill="#bd399c"/><path d="m17.5416 7.16699c5.7529 0 10.4166 4.66361 10.4166 10.41671 0 5.753-4.6637 10.4166-10.4166 10.4166-5.753 0-10.4166-4.6636-10.4166-10.4166 0-5.7531 4.6636-10.41671 10.4166-10.41671z" fill="#93388e"/><path d="m17.4583 10.333c3.9119 0 7.0833 3.1713 7.0833 7.0833 0 3.9119-3.1714 7.0833-7.0833 7.0833s-7.0833-3.1714-7.0833-7.0833c0-3.912 3.1714-7.0833 7.0833-7.0833z" fill="#6030a2"/></g><path d="m54.1094 26h6.7383c3.1054 0 5.4492-.791 7.0019-2.4023 1.582-1.6114 2.3731-3.4864 2.3731-5.6836 0-2.1973-.7911-4.1016-2.3731-5.7129-1.5527-1.6114-3.8965-2.40237-7.0019-2.40237h-6.7383zm13.0371-8.0859c0 1.582-.5274 2.9297-1.582 4.0429-1.0254 1.084-2.6075 1.6407-4.7168 1.6407h-3.75v-11.3965h3.75c2.1093 0 3.6914.5566 4.7168 1.6406 1.0546 1.1133 1.582 2.4609 1.582 4.0723zm5.4785 1.4062c0 4.0723 2.5781 6.9727 7.0605 6.9727 2.9883 0 5.3907-1.4356 6.4454-4.1309h-3.3106c-.7324 1.1426-1.7578 1.7285-3.1348 1.7285-2.2851 0-3.75-1.4648-4.0136-3.75h10.6933v-.8203c0-4.0137-2.6953-6.9726-6.8554-6.9726-4.1895 0-6.8848 2.8711-6.8848 6.9726zm10.6641-1.1133h-7.5879c.3222-2.0215 1.6113-3.457 3.8086-3.457 2.1386 0 3.457 1.4062 3.7793 3.457zm9.9023 2.8418v-6.2109h3.3691v-2.1973h-3.3691v-3.13474h-2.9297v3.13474h-2.1679v2.1973h2.1679v6.2109c0 1.9629.4102 3.2813 1.2598 3.9844s2.0508 1.0547 3.6035 1.0547c.498 0 .9375-.0293 1.3184-.1172l.5566-.1172v-2.3144l-.5566.0586c-.3809.0585-.8204.0878-1.3184.0878-1.582 0-1.9336-.8203-1.9336-2.6367zm12.5686-8.6133c-1.963 0-3.487.4102-4.541 1.2598-1.084.8496-1.6116 1.875-1.6116 3.0762h2.9886c0-1.4063 1.582-1.9336 3.164-1.9336 1.992 0 3.222.7031 3.222 2.5488v.8203h-3.603c-3.545 0-6.2989.9082-6.2989 3.8965 0 2.7539 2.1089 4.1895 5.2439 4.1895 2.022 0 3.457-.4981 4.307-1.4942l.41-.498c0 .5566.234 1.4062.322 1.6992h2.93v-.2344l-.205-.6445c-.117-.4395-.176-1.1133-.176-2.0508v-5.1562c0-3.9258-2.226-5.4786-6.152-5.4786zm3.222 7.7344c0 2.666-1.347 4.043-3.896 4.043-1.67 0-3.018-.5567-3.018-1.9629 0-1.6113 1.465-2.0801 3.311-2.1094zm12.657-5.8594c0 1.7286.879 2.9297 2.343 3.6329 2.666 1.3183 4.131.791 6.827 1.7871.966.3515 1.64.8496 1.64 1.7578 0 1.8457-1.933 2.4902-4.043 2.4902-2.021 0-4.072-.9082-4.072-2.9297h-3.135c0 1.2305.381 2.3438 1.231 3.2227 1.406 1.4941 3.838 2.1094 5.976 2.1094 2.11 0 4.483-.4981 5.948-1.9629.849-.791 1.23-1.875 1.23-3.0762 0-1.582-.674-2.8125-2.314-3.6035-2.344-1.1426-4.278-.8496-6.856-1.7285-.967-.293-1.611-.8203-1.611-1.6993 0-1.582 1.64-2.4902 3.603-2.4902 1.905 0 3.604 1.0547 3.604 2.7832h3.135c0-1.2305-.352-2.2265-1.055-2.959-1.465-1.5527-3.574-2.22653-5.684-2.22653-2.959 0-6.767 1.52343-6.767 4.89253zm30.966 5.0098c0-3.9258-2.226-6.9726-6.298-6.9726-2.373 0-3.516.6445-4.688 2.4316l-.117-2.1387h-2.607v18.1641h2.929v-6.6211c.967 1.4648 2.373 2.1094 4.483 2.1094 4.013 0 6.298-2.9297 6.298-6.9727zm-10.781 0c0-2.5488 1.348-4.6582 3.955-4.6582 2.52 0 3.897 2.0801 3.897 4.6582 0 2.666-1.348 4.6582-3.897 4.6582-2.519 0-3.955-2.0215-3.955-4.6582zm20.01-6.8848c-1.963 0-3.486.4102-4.541 1.2598-1.084.8496-1.611 1.875-1.611 3.0762h2.988c0-1.4063 1.582-1.9336 3.164-1.9336 1.992 0 3.223.7031 3.223 2.5488v.8203h-3.604c-3.545 0-6.299.9082-6.299 3.8965 0 2.7539 2.11 4.1895 5.244 4.1895 2.022 0 3.457-.4981 4.307-1.4942l.41-.498c0 .5566.235 1.4062.323 1.6992h2.929v-.2344l-.205-.6445c-.117-.4395-.176-1.1133-.176-2.0508v-5.1562c0-3.9258-2.226-5.4786-6.152-5.4786zm3.223 7.7344c0 2.666-1.348 4.043-3.897 4.043-1.67 0-3.017-.5567-3.017-1.9629 0-1.6113 1.464-2.0801 3.31-2.1094zm13.33 6.1231c3.369 0 5.859-2.0215 6.533-5.1563h-2.871c-.498 1.5821-1.817 2.7832-3.662 2.7832-2.403 0-4.131-1.875-4.131-4.5996 0-2.6074 1.611-4.5703 4.131-4.5703 1.758 0 3.134 1.084 3.662 2.7539l1.201.0293h1.67c-.645-3.0762-3.135-5.1855-6.533-5.1855-4.307 0-7.119 2.7832-7.119 6.9726 0 4.1602 2.695 6.9727 7.119 6.9727zm8.759-6.9727c0 4.0723 2.579 6.9727 7.061 6.9727 2.988 0 5.391-1.4356 6.445-4.1309h-3.31c-.733 1.1426-1.758 1.7285-3.135 1.7285-2.285 0-3.75-1.4648-4.014-3.75h10.694v-.8203c0-4.0137-2.696-6.9726-6.856-6.9726-4.189 0-6.885 2.8711-6.885 6.9726zm10.665-1.1133h-7.588c.322-2.0215 1.611-3.457 3.808-3.457 2.139 0 3.457 1.4062 3.78 3.457z" fill="#fff"/></svg>